<svg xmlns="http://www.w3.org/2000/svg" xmlns:xlink="http://www.w3.org/1999/xlink" width="500" zoomAndPan="magnify" viewBox="0 0 375 374.999991" height="500" preserveAspectRatio="xMidYMid meet" version="1.0"><path fill="#f58115" d="M 118.726562 134.199219 C 109.203125 134.199219 109.171875 216.34375 109.171875 227.5 C 109.171875 241.039062 129.730469 240.949219 129.730469 256.769531 C 129.730469 260.628906 129.738281 264.347656 129.746094 267.96875 C 129.039062 278.5625 118.871094 284.914062 111.585938 279.003906 C 104.300781 273.09375 104.828125 266.660156 103.378906 258.039062 C 100.1875 239.039062 81.742188 218.304688 79.855469 191.191406 C 77.734375 160.761719 82.246094 131.882812 99.742188 113.640625 C 122.390625 90.023438 141.9375 102.316406 178.535156 92.507812 C 231.175781 78.402344 292.054688 111.398438 277.214844 191.191406 C 271.019531 224.5 281.132812 255.328125 256.058594 272.167969 C 231.835938 288.425781 224.667969 266.0625 224.589844 261.523438 L 224.390625 249.953125 C 224.390625 246.761719 225.738281 245.132812 233.824219 238.972656 C 263.136719 216.648438 248.460938 133.160156 217.023438 133.160156 C 185.585938 133.15625 170.910156 216.648438 200.222656 238.972656 C 208.308594 245.132812 209.65625 246.761719 209.65625 249.957031 C 209.59375 253.75 209.589844 253.796875 209.464844 261.339844 C 209.335938 268.882812 207.105469 285.394531 194.503906 287.117188 C 193.453125 287.265625 189.070312 288.097656 188 288.203125 C 184.003906 288.203125 182.144531 288.902344 178.535156 289.871094 C 172.597656 291.457031 168.757812 290.269531 161.480469 293.445312 C 154.203125 296.621094 144.125 286.972656 144.128906 278.34375 C 144.136719 269.722656 144.167969 264.402344 144.167969 256.769531 C 144.167969 240.949219 164.730469 241.039062 164.730469 227.5 C 164.730469 216.34375 164.699219 134.199219 155.175781 134.199219 C 154.074219 134.199219 152.332031 135.882812 152.332031 139.160156 L 152.332031 189.871094 C 152.347656 197.164062 152.09375 202.742188 147.269531 202.742188 C 142.449219 202.742188 142.835938 192.792969 142.835938 189.679688 C 142.835938 188.851562 140.648438 140.445312 140.597656 139.679688 C 140.324219 135.691406 139.625 133.160156 136.949219 133.160156 C 134.28125 133.15625 133.167969 135.691406 132.902344 139.679688 C 132.851562 140.445312 131.066406 188.851562 131.066406 189.679688 C 131.066406 192.792969 131.453125 202.742188 126.628906 202.742188 C 121.808594 202.742188 121.558594 197.164062 121.574219 189.871094 L 121.574219 139.160156 C 121.574219 135.882812 119.824219 134.199219 118.726562 134.199219 Z M 294.480469 185.238281 C 290.179688 185.558594 288.351562 185.882812 286.949219 180.832031 C 285.546875 175.785156 285.660156 166.539062 290.265625 166.574219 C 294.867188 166.609375 301.359375 170.15625 299.746094 178.476562 C 298.808594 183.300781 298.777344 184.921875 294.480469 185.238281 Z M 286.164062 227.640625 C 282.640625 226.859375 282.359375 216.242188 282.765625 211.074219 C 283.171875 205.902344 283.542969 188.101562 292.15625 191.855469 C 300.765625 195.613281 300.0625 200.171875 296.257812 207.695312 C 294.050781 212.054688 289.691406 228.425781 286.164062 227.640625 Z M 77.171875 232.832031 C 80.484375 231.386719 84.140625 234.1875 86.855469 238.605469 C 89.574219 243.019531 99.761719 257.625 90.589844 259.664062 C 81.417969 261.699219 75.730469 255.585938 74.371094 247.265625 C 73.585938 242.441406 73.863281 234.273438 77.171875 232.832031 " fill-opacity="1" fill-rule="evenodd"/></svg>