<svg xmlns="http://www.w3.org/2000/svg" xmlns:xlink="http://www.w3.org/1999/xlink" width="40" zoomAndPan="magnify" viewBox="0 0 30 30.000001" height="40" preserveAspectRatio="xMidYMid meet" version="1.0"><defs><clipPath id="643270ba0f"><path d="M 4.542969 5 L 25.457031 5 L 25.457031 24.800781 L 4.542969 24.800781 Z M 4.542969 5 " clip-rule="nonzero"/></clipPath></defs><g clip-path="url(#643270ba0f)"><path fill="#f58115" d="M 8.683594 9.621094 C 7.808594 9.621094 7.808594 17.164062 7.808594 18.1875 C 7.808594 19.429688 9.695312 19.421875 9.695312 20.875 C 9.695312 21.230469 9.695312 21.570312 9.695312 21.902344 C 9.632812 22.875 8.699219 23.460938 8.03125 22.917969 C 7.359375 22.375 7.410156 21.785156 7.277344 20.992188 C 6.984375 19.246094 5.289062 17.34375 5.117188 14.855469 C 4.921875 12.058594 5.335938 9.40625 6.941406 7.734375 C 9.023438 5.5625 10.816406 6.691406 14.175781 5.792969 C 19.011719 4.496094 24.601562 7.527344 23.238281 14.855469 C 22.667969 17.914062 23.597656 20.742188 21.296875 22.289062 C 19.070312 23.78125 18.414062 21.726562 18.40625 21.3125 L 18.386719 20.25 C 18.386719 19.957031 18.511719 19.804688 19.253906 19.242188 C 21.945312 17.191406 20.597656 9.523438 17.710938 9.523438 C 14.824219 9.523438 13.476562 17.191406 16.167969 19.242188 C 16.910156 19.804688 17.035156 19.957031 17.035156 20.25 C 17.027344 20.597656 17.027344 20.601562 17.015625 21.292969 C 17.003906 21.988281 16.800781 23.503906 15.644531 23.664062 C 15.546875 23.675781 15.144531 23.753906 15.046875 23.761719 C 14.679688 23.761719 14.507812 23.824219 14.175781 23.914062 C 13.632812 24.058594 13.277344 23.953125 12.609375 24.242188 C 11.941406 24.535156 11.015625 23.648438 11.019531 22.855469 C 11.019531 22.066406 11.019531 21.574219 11.019531 20.875 C 11.019531 19.421875 12.910156 19.429688 12.910156 18.1875 C 12.910156 17.164062 12.90625 9.621094 12.03125 9.621094 C 11.929688 9.621094 11.769531 9.773438 11.769531 10.074219 L 11.769531 14.730469 C 11.773438 15.402344 11.75 15.914062 11.304688 15.914062 C 10.863281 15.914062 10.898438 15 10.898438 14.714844 C 10.898438 14.640625 10.699219 10.195312 10.691406 10.125 C 10.667969 9.757812 10.605469 9.523438 10.359375 9.523438 C 10.113281 9.523438 10.011719 9.757812 9.988281 10.125 C 9.980469 10.195312 9.816406 14.640625 9.816406 14.714844 C 9.816406 15 9.855469 15.914062 9.410156 15.914062 C 8.96875 15.914062 8.945312 15.402344 8.945312 14.730469 L 8.945312 10.074219 C 8.945312 9.773438 8.785156 9.621094 8.683594 9.621094 Z M 24.824219 14.308594 C 24.429688 14.335938 24.261719 14.367188 24.132812 13.902344 C 24.003906 13.4375 24.011719 12.589844 24.4375 12.59375 C 24.859375 12.597656 25.457031 12.921875 25.308594 13.6875 C 25.222656 14.128906 25.21875 14.277344 24.824219 14.308594 Z M 24.058594 18.199219 C 23.734375 18.128906 23.710938 17.152344 23.746094 16.679688 C 23.785156 16.203125 23.820312 14.570312 24.609375 14.914062 C 25.402344 15.257812 25.335938 15.679688 24.988281 16.367188 C 24.785156 16.769531 24.382812 18.273438 24.058594 18.199219 Z M 4.871094 18.675781 C 5.171875 18.542969 5.507812 18.800781 5.757812 19.207031 C 6.007812 19.613281 6.945312 20.953125 6.101562 21.140625 C 5.257812 21.328125 4.738281 20.765625 4.613281 20.003906 C 4.539062 19.558594 4.566406 18.808594 4.871094 18.675781 " fill-opacity="1" fill-rule="evenodd"/></g></svg>