<svg xmlns="http://www.w3.org/2000/svg" xmlns:xlink="http://www.w3.org/1999/xlink" width="500" zoomAndPan="magnify" viewBox="0 0 375 374.999991" height="500" preserveAspectRatio="xMidYMid meet" version="1.0"><defs><g/><clipPath id="852dee7ddf"><path d="M 122.753906 99 L 252 99 L 252 217 L 122.753906 217 Z M 122.753906 99 " clip-rule="nonzero"/></clipPath></defs><g clip-path="url(#852dee7ddf)"><path fill="#f58115" d="M 148.398438 125.320312 C 142.980469 125.320312 142.964844 172.023438 142.964844 178.363281 C 142.964844 186.0625 154.652344 186.011719 154.652344 195.003906 C 154.652344 197.199219 154.65625 199.3125 154.660156 201.375 C 154.261719 207.394531 148.480469 211.007812 144.335938 207.648438 C 140.195312 204.289062 140.496094 200.628906 139.671875 195.730469 C 137.855469 184.925781 127.371094 173.136719 126.296875 157.722656 C 125.089844 140.421875 127.65625 124.003906 137.605469 113.632812 C 150.480469 100.203125 161.59375 107.191406 182.402344 101.617188 C 212.328125 93.597656 246.941406 112.355469 238.503906 157.722656 C 234.980469 176.660156 240.730469 194.1875 226.476562 203.761719 C 212.703125 213.003906 208.628906 200.289062 208.585938 197.707031 L 208.472656 191.128906 C 208.472656 189.316406 209.238281 188.390625 213.835938 184.886719 C 230.5 172.195312 222.15625 124.730469 204.28125 124.730469 C 186.410156 124.726562 178.066406 172.195312 194.730469 184.886719 C 199.328125 188.390625 200.09375 189.316406 200.09375 191.132812 C 200.058594 193.289062 200.054688 193.316406 199.984375 197.605469 C 199.910156 201.894531 198.644531 211.28125 191.480469 212.261719 C 190.882812 212.34375 188.390625 212.816406 187.78125 212.875 C 185.511719 212.875 184.453125 213.277344 182.402344 213.824219 C 179.027344 214.726562 176.839844 214.050781 172.703125 215.859375 C 168.566406 217.664062 162.839844 212.175781 162.839844 207.273438 C 162.84375 202.371094 162.863281 199.34375 162.863281 195.003906 C 162.863281 186.011719 174.550781 186.0625 174.550781 178.363281 C 174.550781 172.023438 174.535156 125.320312 169.117188 125.320312 C 168.496094 125.320312 167.503906 126.277344 167.503906 128.140625 L 167.503906 156.972656 C 167.511719 161.117188 167.367188 164.289062 164.625 164.289062 C 161.882812 164.289062 162.105469 158.632812 162.105469 156.863281 C 162.105469 156.390625 160.859375 128.871094 160.832031 128.4375 C 160.675781 126.167969 160.277344 124.730469 158.757812 124.730469 C 157.238281 124.726562 156.609375 126.167969 156.457031 128.4375 C 156.425781 128.871094 155.414062 156.390625 155.414062 156.863281 C 155.414062 158.632812 155.632812 164.289062 152.890625 164.289062 C 150.148438 164.289062 150.007812 161.117188 150.015625 156.972656 L 150.015625 128.140625 C 150.015625 126.277344 149.019531 125.320312 148.398438 125.320312 Z M 248.320312 154.335938 C 245.875 154.519531 244.835938 154.703125 244.039062 151.832031 C 243.242188 148.964844 243.304688 143.707031 245.925781 143.726562 C 248.539062 143.746094 252.230469 145.765625 251.3125 150.492188 C 250.78125 153.238281 250.765625 154.15625 248.320312 154.335938 Z M 243.59375 178.445312 C 241.585938 178 241.429688 171.964844 241.660156 169.027344 C 241.890625 166.085938 242.101562 155.964844 247 158.101562 C 251.894531 160.234375 251.492188 162.828125 249.332031 167.105469 C 248.074219 169.585938 245.597656 178.890625 243.59375 178.445312 Z M 124.773438 181.394531 C 126.65625 180.574219 128.734375 182.167969 130.277344 184.679688 C 131.824219 187.1875 137.613281 195.492188 132.402344 196.652344 C 127.1875 197.808594 123.953125 194.332031 123.179688 189.601562 C 122.730469 186.859375 122.890625 182.214844 124.773438 181.394531 " fill-opacity="1" fill-rule="evenodd"/></g><g fill="#000000" fill-opacity="1"><g transform="translate(71.754927, 256.115903)"><g><path d="M 16.40625 2.085938 C 25.320312 0.722656 35.878906 -7.714844 43.332031 -23.792969 C 43.179688 -24.777344 41.789062 -25.425781 41.085938 -25.320312 C 36.070312 -14.925781 25.734375 -5.015625 15.136719 -3.394531 C 10.714844 -2.71875 8.585938 -3.972656 8.230469 -6.285156 C 7.265625 -12.601562 18.535156 -20.144531 27.621094 -22.253906 C 28.519531 -22.03125 28.886719 -23.378906 28.671875 -24.785156 C 28.425781 -26.398438 27.503906 -28.195312 25.914062 -28.242188 C 24.542969 -27.816406 22.621094 -27.234375 20.796875 -26.953125 C 17.710938 -26.484375 14.726562 -26.742188 14.304688 -29.480469 C 13.363281 -35.65625 24.726562 -44.003906 32.304688 -45.164062 C 34.480469 -45.496094 35.476562 -45.074219 35.605469 -44.230469 C 35.886719 -42.40625 32.449219 -38.578125 29.164062 -35.632812 C 29.722656 -35.285156 30.527344 -35.195312 31.4375 -35.335938 C 35.226562 -35.914062 41.09375 -39.828125 40.480469 -43.828125 C 39.976562 -47.125 34.625 -51.121094 28.238281 -50.140625 C 19.816406 -48.855469 6.335938 -39.320312 7.742188 -30.128906 C 8.257812 -26.761719 11.226562 -24.269531 15.398438 -23.757812 L 15.472656 -23.265625 C 6.433594 -19.441406 0.625 -13.742188 1.667969 -6.933594 C 2.625 -0.6875 9.179688 3.191406 16.40625 2.085938 Z M 16.40625 2.085938 "/></g></g></g><g fill="#000000" fill-opacity="1"><g transform="translate(108.316389, 250.521953)"><g><path d="M 25.335938 -9.980469 C 20 -9.164062 14.585938 -7.472656 10.085938 -5.421875 C 10.0625 -13.101562 17.054688 -35 23.28125 -45.003906 C 23.457031 -45.246094 23.496094 -45.464844 23.453125 -45.746094 C 23.257812 -47.011719 20.714844 -48.632812 18.816406 -48.34375 C 18.398438 -48.277344 18.066406 -48.082031 17.75 -47.820312 C 12.972656 -43.355469 2.328125 -16.230469 3.648438 -7.597656 C 3.90625 -5.914062 5.417969 -4.492188 6.960938 -3.792969 C 5.171875 -2.800781 3.675781 -1.785156 2.542969 -0.75 C 1.230469 0.53125 0.9375 2.371094 1.109375 3.492188 C 1.207031 4.125 1.492188 4.582031 1.84375 4.53125 C 2.054688 4.496094 2.3125 4.316406 2.597656 3.839844 C 3.542969 2.042969 16.164062 -2.328125 23.882812 -3.511719 C 27.039062 -3.992188 29.421875 -3.925781 29.78125 -2.976562 C 30.484375 -3.082031 30.792969 -4.351562 30.566406 -5.824219 C 30.234375 -8 28.703125 -10.496094 25.335938 -9.980469 Z M 25.335938 -9.980469 "/></g></g></g><g fill="#000000" fill-opacity="1"><g transform="translate(140.59714, 245.582956)"><g/></g></g><g fill="#000000" fill-opacity="1"><g transform="translate(153.439259, 243.618095)"><g><path d="M 29.753906 -50.085938 C 18.808594 -48.414062 -2.78125 -42.59375 -1.363281 -33.332031 C -1.042969 -31.226562 1.582031 -28.613281 3.757812 -28.945312 C 3.027344 -33.714844 11.03125 -38.675781 20.320312 -41.820312 C 17.699219 -37.828125 14.132812 -29.671875 11.414062 -21.640625 C 8.140625 -20.492188 5.402344 -19.140625 4.230469 -17.882812 C 3.304688 -16.882812 3.09375 -15.914062 3.203125 -15.214844 C 3.332031 -14.371094 3.988281 -13.824219 4.269531 -13.867188 C 4.605469 -14.496094 6.753906 -15.46875 9.746094 -16.574219 C 7.9375 -10.550781 6.816406 -5.207031 7.214844 -2.613281 C 7.78125 1.109375 11.289062 2.4375 12.972656 2.179688 C 13.535156 2.09375 13.855469 1.832031 13.859375 1.398438 C 13.367188 -1.828125 15.3125 -10.242188 18.195312 -19.085938 C 20.75 -19.765625 23.183594 -20.28125 25.289062 -20.605469 C 28.375 -21.074219 30.675781 -21.070312 30.816406 -20.15625 C 31.585938 -20.273438 33.105469 -23.019531 32.828125 -24.84375 C 32.667969 -25.898438 31.824219 -26.703125 29.71875 -26.378906 C 28.386719 -26.175781 24.417969 -25.355469 19.992188 -24.246094 C 22.367188 -30.785156 25.136719 -37.097656 27.675781 -41.152344 C 27.863281 -41.324219 27.984375 -41.484375 27.941406 -41.765625 C 27.855469 -42.328125 27.175781 -43.011719 26.296875 -43.597656 C 28.226562 -44.109375 30.183594 -44.480469 32.007812 -44.757812 C 37.972656 -45.671875 38.839844 -44.222656 39.128906 -42.328125 C 41.445312 -42.683594 42.300781 -43.675781 42.117188 -44.867188 C 41.71875 -47.464844 36 -51.042969 29.753906 -50.085938 Z M 29.753906 -50.085938 "/></g></g></g><g fill="#000000" fill-opacity="1"><g transform="translate(188.316501, 238.281832)"><g><path d="M 34.558594 -22.453125 C 34.40625 -23.433594 33.015625 -24.085938 32.3125 -23.976562 C 29.566406 -18.457031 26.492188 -15.546875 23.507812 -13.9375 C 25.234375 -19.085938 26.085938 -24.316406 25.589844 -27.542969 C 24.871094 -32.246094 20.964844 -35.238281 17.316406 -34.683594 C 14.929688 -34.316406 12.851562 -32.417969 11.21875 -29.941406 C 6.375 -27.332031 0.277344 -14.621094 1.402344 -7.253906 C 2.382812 -0.867188 8.667969 1.257812 12.035156 0.742188 C 15.683594 0.1875 19.007812 -3.914062 21.46875 -8.957031 C 25.539062 -10.515625 30.730469 -14.613281 34.558594 -22.453125 Z M 19.820312 -28.171875 C 20.390625 -24.449219 18.78125 -17.597656 16.476562 -12 C 12.074219 -11.6875 10.105469 -13.753906 9.652344 -16.703125 L 9.621094 -16.914062 C 10.84375 -21.121094 12.996094 -24.898438 15.867188 -25.839844 C 16.390625 -25.707031 16.539062 -26.160156 16.429688 -26.863281 C 16.300781 -27.703125 15.769531 -28.84375 14.855469 -29.636719 C 15.625 -30.257812 16.421875 -30.667969 17.195312 -30.785156 C 18.738281 -31.019531 19.542969 -29.996094 19.820312 -28.171875 Z M 10.464844 -2.964844 C 9.410156 -2.804688 8.738281 -3.921875 8.445312 -5.816406 C 8.210938 -7.359375 8.261719 -9.378906 8.488281 -11.640625 C 10.0625 -9.800781 12.582031 -8.820312 14.949219 -8.390625 C 13.402344 -5.355469 11.796875 -3.167969 10.464844 -2.964844 Z M 10.464844 -2.964844 "/></g></g></g><g fill="#000000" fill-opacity="1"><g transform="translate(216.106017, 234.030001)"><g><path d="M 38.417969 -23.042969 C 38.269531 -24.027344 36.875 -24.675781 36.171875 -24.566406 C 33.464844 -18.335938 29.839844 -13.398438 26.003906 -9.363281 C 26.746094 -13.429688 27.257812 -17.601562 27.71875 -21.621094 C 27.765625 -21.773438 27.792969 -22.0625 27.761719 -22.273438 C 27.535156 -23.75 25.050781 -25.449219 22.382812 -25.042969 C 18.945312 -24.515625 11.46875 -5.777344 9.222656 -5.433594 C 8.800781 -5.367188 8.410156 -5.597656 8.238281 -6.71875 C 7.421875 -12.050781 12.726562 -29.023438 20.304688 -30.183594 C 22.480469 -30.515625 24.152344 -29.910156 24.566406 -26.742188 C 26.347656 -27.300781 26.9375 -28.613281 26.722656 -30.015625 C 26.324219 -32.613281 21.316406 -35.292969 17.527344 -34.714844 C 9.035156 -33.414062 -0.332031 -15.320312 1.128906 -5.773438 C 1.578125 -2.828125 5.488281 0.667969 8.925781 0.140625 C 13.417969 -0.542969 18.167969 -14.558594 20.746094 -18.832031 L 21.25 -18.835938 C 20.53125 -13.195312 19.367188 -7.199219 17.851562 -2.085938 C 9.84375 4.238281 2.886719 7.601562 3.5 11.601562 C 3.917969 14.339844 7.59375 16.289062 11.59375 15.679688 C 18.539062 14.617188 22.515625 6.324219 24.902344 -3.882812 C 29.808594 -8.4375 34.835938 -14.523438 38.417969 -23.042969 Z M 10.128906 11.738281 C 9.285156 11.867188 8.167969 11.605469 7.996094 10.484375 C 7.664062 8.308594 11.636719 6.121094 16.953125 2.363281 C 15.027344 7.613281 12.371094 11.394531 10.128906 11.738281 Z M 10.128906 11.738281 "/></g></g></g><g fill="#000000" fill-opacity="1"><g transform="translate(247.755184, 229.187637)"><g><path d="M 14.808594 -37.457031 C 17.265625 -37.835938 26.929688 -42.257812 26.425781 -45.554688 C 26.277344 -46.539062 25.027344 -48.144531 22.921875 -47.820312 C 18.5 -41.972656 13.164062 -39.289062 12.46875 -38.679688 C 12.585938 -37.90625 13.6875 -37.285156 14.808594 -37.457031 Z M 34.558594 -22.453125 C 34.40625 -23.433594 33.015625 -24.085938 32.3125 -23.976562 C 29.566406 -18.457031 26.492188 -15.546875 23.507812 -13.9375 C 25.234375 -19.085938 26.085938 -24.316406 25.589844 -27.542969 C 24.871094 -32.246094 20.964844 -35.238281 17.316406 -34.683594 C 14.929688 -34.316406 12.851562 -32.417969 11.21875 -29.941406 C 6.375 -27.332031 0.277344 -14.621094 1.402344 -7.253906 C 2.382812 -0.867188 8.667969 1.257812 12.035156 0.742188 C 15.683594 0.1875 19.007812 -3.914062 21.46875 -8.957031 C 25.539062 -10.515625 30.730469 -14.613281 34.558594 -22.453125 Z M 19.820312 -28.171875 C 20.390625 -24.449219 18.78125 -17.597656 16.476562 -12 C 12.074219 -11.6875 10.105469 -13.753906 9.652344 -16.703125 L 9.621094 -16.914062 C 10.84375 -21.121094 12.996094 -24.898438 15.867188 -25.839844 C 16.390625 -25.707031 16.539062 -26.160156 16.429688 -26.863281 C 16.300781 -27.703125 15.769531 -28.84375 14.855469 -29.636719 C 15.625 -30.257812 16.421875 -30.667969 17.195312 -30.785156 C 18.738281 -31.019531 19.542969 -29.996094 19.820312 -28.171875 Z M 10.464844 -2.964844 C 9.410156 -2.804688 8.738281 -3.921875 8.445312 -5.816406 C 8.210938 -7.359375 8.261719 -9.378906 8.488281 -11.640625 C 10.0625 -9.800781 12.582031 -8.820312 14.949219 -8.390625 C 13.402344 -5.355469 11.796875 -3.167969 10.464844 -2.964844 Z M 10.464844 -2.964844 "/></g></g></g><g fill="#000000" fill-opacity="1"><g transform="translate(275.544712, 224.935804)"><g><path d="M 6.359375 1.183594 C 7.058594 1.074219 7.457031 0.871094 7.464844 0.4375 C 9.996094 -11.65625 19.984375 -28.050781 22.859375 -28.492188 C 23.140625 -28.535156 23.304688 -28.414062 23.335938 -28.203125 C 23.625 -26.308594 17.101562 -15.902344 18.046875 -9.726562 C 18.660156 -5.726562 22.261719 -2.832031 25.210938 -3.28125 C 29.210938 -3.894531 35.28125 -11.144531 40.59375 -23.375 C 40.441406 -24.359375 39.050781 -25.007812 38.347656 -24.898438 C 34.167969 -16.074219 29.148438 -9.917969 26.835938 -9.5625 C 26.132812 -9.457031 25.71875 -9.824219 25.578125 -10.738281 C 25.019531 -14.386719 29.535156 -25.707031 31.390625 -29.078125 C 31.707031 -29.34375 31.714844 -29.773438 31.640625 -30.265625 C 31.339844 -32.230469 28.5625 -34.894531 24.5625 -34.28125 C 20.070312 -33.59375 11.820312 -19.90625 8.164062 -10.011719 L 7.652344 -10.078125 C 9.179688 -17.921875 13.085938 -28.074219 14.066406 -28.222656 C 14.257812 -28.394531 14.355469 -28.699219 14.320312 -28.910156 C 14.117188 -30.242188 11.46875 -32.0625 9.363281 -31.742188 C 5.855469 -31.203125 -0.148438 -8.019531 0.65625 -2.757812 C 1.117188 0.261719 4.601562 1.449219 6.359375 1.183594 Z M 6.359375 1.183594 "/></g></g></g><g fill="#000000" fill-opacity="1"><g transform="translate(133.132664, 275.278283)"><g><path d="M 1.320312 -1.460938 C 1.078125 -1.460938 0.917969 -1.300781 0.917969 -1.121094 L 0.878906 -0.339844 C 0.878906 -0.140625 1.039062 0.0390625 1.238281 0.0390625 C 1.839844 0.0585938 1.839844 0.0585938 4.21875 0.0195312 C 4.4375 0.0195312 4.597656 -0.160156 4.578125 -0.359375 L 4.539062 -1.121094 C 4.539062 -1.300781 4.378906 -1.460938 4.199219 -1.460938 C 3.878906 -1.480469 3.71875 -1.640625 3.71875 -1.839844 L 3.71875 -5.378906 C 3.71875 -5.539062 3.859375 -5.679688 4.019531 -5.679688 C 4.398438 -5.679688 5.078125 -5.699219 5.457031 -5.660156 C 6.359375 -5.660156 7.316406 -4.617188 7.359375 -3.320312 C 7.359375 -1.898438 7.417969 -0.640625 7.839844 -0.199219 C 8.316406 0.238281 9.417969 0.238281 10.496094 0.121094 C 10.71875 0.078125 10.878906 -0.078125 10.898438 -0.28125 C 10.9375 -0.519531 10.996094 -0.679688 11.015625 -1.019531 C 11.039062 -1.257812 10.898438 -1.480469 10.675781 -1.539062 C 10.457031 -1.621094 10.238281 -1.699219 9.835938 -1.960938 C 9.21875 -2.359375 9.9375 -5.597656 8.058594 -6.238281 C 7.996094 -6.257812 7.996094 -6.359375 8.058594 -6.378906 C 9.878906 -6.9375 10.378906 -8.058594 10.296875 -10.199219 C 10.257812 -12.355469 8.71875 -13.976562 7.097656 -14.035156 C 6 -14.117188 2.417969 -14.035156 1.21875 -14.015625 C 1 -14.015625 0.820312 -13.835938 0.820312 -13.617188 L 0.800781 -12.757812 C 0.800781 -12.535156 0.980469 -12.335938 1.21875 -12.335938 L 1.320312 -12.335938 C 1.539062 -12.335938 1.738281 -12.15625 1.738281 -11.917969 C 1.71875 -10.476562 1.71875 -5.679688 1.699219 -3.199219 C 1.699219 -2.9375 1.679688 -2.238281 1.660156 -1.820312 C 1.660156 -1.621094 1.5 -1.480469 1.320312 -1.460938 Z M 5.839844 -7.476562 C 5.378906 -7.476562 4.578125 -7.457031 4.078125 -7.4375 C 3.839844 -7.4375 3.640625 -7.617188 3.640625 -7.859375 L 3.660156 -11.898438 C 3.660156 -12.117188 3.859375 -12.296875 4.078125 -12.296875 C 4.738281 -12.316406 5.9375 -12.296875 6.199219 -12.257812 C 7.699219 -11.957031 8.097656 -11.558594 8.15625 -10.015625 C 8.238281 -8.117188 6.839844 -7.476562 5.839844 -7.476562 Z M 5.839844 -7.476562 "/></g></g></g><g fill="#000000" fill-opacity="1"><g transform="translate(144.568149, 275.278283)"><g><path d="M 8.238281 -11.296875 C 8.457031 -11.296875 8.636719 -11.457031 8.679688 -11.675781 C 8.738281 -12.175781 8.757812 -12.855469 8.777344 -13.515625 C 8.777344 -13.777344 8.597656 -13.996094 8.339844 -13.996094 C 6.199219 -13.976562 3.417969 -14.015625 1.519531 -13.996094 C 1.300781 -13.996094 1.101562 -13.816406 1.101562 -13.597656 C 1.078125 -13.355469 1.101562 -13.058594 1.101562 -12.816406 C 1.121094 -12.578125 1.320312 -12.398438 1.539062 -12.417969 C 1.800781 -12.457031 2.039062 -12.238281 2.039062 -11.976562 C 2.039062 -8.71875 2.019531 -5.257812 2 -2.078125 C 2 -1.820312 1.859375 -1.578125 1.597656 -1.597656 C 1.578125 -1.597656 1.378906 -1.578125 1.359375 -1.578125 C 1.078125 -1.578125 1 -1.460938 1 -1.179688 C 1 -0.960938 1 -0.640625 1.019531 -0.417969 C 1.019531 -0.160156 1.140625 0 1.378906 0 C 1.539062 0 1.800781 -0.0195312 1.917969 0 C 3.660156 0.0195312 6.4375 0 8.199219 0.0195312 C 8.417969 0.0195312 8.597656 -0.160156 8.617188 -0.378906 C 8.65625 -1.101562 8.679688 -1.621094 8.679688 -2.078125 C 8.679688 -2.320312 8.476562 -2.519531 8.238281 -2.519531 C 7.996094 -2.539062 7.777344 -2.539062 7.519531 -2.539062 C 7.277344 -2.539062 7.160156 -2.300781 7.160156 -2.121094 C 7.160156 -1.859375 7.199219 -1.597656 7.078125 -1.597656 C 6.597656 -1.578125 5.277344 -1.578125 4.5 -1.597656 C 4.257812 -1.621094 4.078125 -1.820312 4.078125 -2.058594 C 4.078125 -3.617188 4.058594 -4.777344 4.058594 -6.320312 C 4.058594 -6.558594 4.257812 -6.757812 4.5 -6.757812 C 5.179688 -6.757812 6.539062 -6.71875 7.296875 -6.699219 C 7.597656 -6.679688 7.859375 -6.917969 7.898438 -7.238281 C 7.917969 -7.457031 7.917969 -7.71875 7.917969 -7.9375 C 7.898438 -8.179688 7.71875 -8.359375 7.5 -8.378906 C 6.539062 -8.417969 5.320312 -8.378906 4.480469 -8.378906 C 4.21875 -8.378906 4.019531 -8.578125 4.019531 -8.816406 C 4.039062 -9.71875 4.078125 -11.097656 4.078125 -11.957031 C 4.078125 -12.195312 4.277344 -12.398438 4.519531 -12.398438 C 5.179688 -12.398438 6.078125 -12.417969 6.679688 -12.417969 C 6.898438 -12.417969 7.078125 -12.257812 7.117188 -12.058594 L 7.160156 -11.695312 C 7.160156 -11.457031 7.359375 -11.277344 7.597656 -11.277344 C 7.816406 -11.277344 8.039062 -11.296875 8.238281 -11.296875 Z M 8.238281 -11.296875 "/></g></g></g><g fill="#000000" fill-opacity="1"><g transform="translate(154.14437, 275.278283)"><g><path d="M 9.058594 -4.097656 C 8.878906 -6.5 7.078125 -7.179688 5.578125 -7.757812 C 5.238281 -7.839844 3.460938 -8.578125 2.839844 -9.835938 C 2.058594 -11.457031 3.339844 -12.316406 4.359375 -12.316406 C 4.980469 -12.316406 5.660156 -12.195312 6.296875 -11.738281 C 6.417969 -11.65625 6.5 -11.515625 6.5 -11.355469 L 6.539062 -10.917969 C 6.539062 -10.578125 6.816406 -10.316406 7.136719 -10.316406 L 7.9375 -10.316406 C 8.296875 -10.296875 8.578125 -10.597656 8.578125 -10.9375 L 8.539062 -12.175781 C 8.519531 -12.355469 8.4375 -12.515625 8.316406 -12.636719 C 5.71875 -15.035156 2.71875 -13.957031 2.71875 -13.957031 C 1.140625 -13.355469 0.519531 -12.15625 0.71875 -9.65625 C 0.878906 -7.796875 2.898438 -6.417969 4.539062 -5.738281 C 5.820312 -5.199219 6.898438 -4.757812 6.9375 -3.660156 C 7 -1.898438 5.859375 -1.378906 4.839844 -1.378906 C 4.257812 -1.378906 3.539062 -1.5 2.960938 -1.917969 C 2.78125 -2.058594 2.679688 -2.257812 2.660156 -2.460938 L 2.660156 -2.800781 C 2.640625 -3.140625 2.339844 -3.417969 2 -3.398438 L 1.238281 -3.398438 C 0.878906 -3.378906 0.601562 -3.097656 0.601562 -2.738281 L 0.640625 -1.558594 C 0.660156 -1.398438 0.738281 -1.238281 0.859375 -1.121094 C 2.320312 0.339844 4.640625 0.300781 5.878906 0.140625 C 6.417969 0.078125 6.9375 -0.101562 7.417969 -0.378906 C 8.738281 -1.179688 9.238281 -1.917969 9.058594 -4.097656 Z M 9.058594 -4.097656 "/></g></g></g><g fill="#000000" fill-opacity="1"><g transform="translate(163.840548, 275.278283)"><g><path d="M 5.757812 -12.078125 C 5.757812 -12.296875 5.9375 -12.457031 6.136719 -12.457031 L 7.339844 -12.457031 C 7.519531 -12.457031 7.679688 -12.316406 7.699219 -12.15625 L 7.71875 -11.898438 C 7.757812 -11.636719 7.976562 -11.4375 8.238281 -11.417969 L 8.796875 -11.417969 C 9.097656 -11.398438 9.335938 -11.636719 9.359375 -11.9375 L 9.398438 -13.515625 C 9.417969 -13.816406 9.15625 -13.996094 8.859375 -13.996094 L 0.578125 -13.976562 C 0.378906 -13.976562 0.199219 -13.816406 0.199219 -13.597656 L 0.21875 -11.957031 C 0.21875 -11.738281 0.378906 -11.578125 0.578125 -11.578125 L 1.441406 -11.558594 C 1.640625 -11.558594 1.820312 -11.695312 1.820312 -11.898438 L 1.839844 -12.078125 C 1.859375 -12.257812 2.019531 -12.417969 2.21875 -12.417969 L 3.398438 -12.417969 C 3.597656 -12.417969 3.757812 -12.257812 3.757812 -12.035156 L 3.800781 -1.941406 C 3.800781 -1.71875 3.617188 -1.519531 3.398438 -1.519531 L 3.160156 -1.5 C 2.917969 -1.480469 2.738281 -1.300781 2.757812 -1.058594 L 2.78125 -0.398438 C 2.800781 -0.179688 2.980469 0 3.199219 0 L 6.617188 -0.0195312 C 6.839844 -0.0195312 7.039062 -0.199219 7.039062 -0.441406 L 7.019531 -1.101562 C 7.019531 -1.320312 6.839844 -1.5 6.617188 -1.519531 L 6.257812 -1.539062 C 6.039062 -1.539062 5.859375 -1.71875 5.859375 -1.941406 Z M 5.757812 -12.078125 "/></g></g></g><g fill="#000000" fill-opacity="1"><g transform="translate(173.456755, 275.278283)"><g><path d="M 11.195312 -1.539062 L 11.078125 -1.539062 C 10.898438 -1.558594 10.757812 -1.660156 10.699219 -1.820312 C 10.136719 -3.359375 7.976562 -10.515625 7.058594 -13.597656 C 6.957031 -13.9375 6.636719 -14.175781 6.277344 -14.195312 L 6 -14.195312 C 5.636719 -14.214844 5.320312 -13.976562 5.199219 -13.636719 C 3.878906 -9.558594 1.839844 -3.238281 1.28125 -1.839844 C 1.21875 -1.679688 1.078125 -1.558594 0.898438 -1.558594 L 0.761719 -1.558594 C 0.460938 -1.539062 0.238281 -1.300781 0.21875 -1.019531 L 0.199219 -0.578125 C 0.199219 -0.261719 0.460938 0 0.78125 0 L 4.058594 0 C 4.320312 0 4.539062 -0.21875 4.539062 -0.480469 L 4.558594 -1.039062 C 4.558594 -1.300781 4.359375 -1.519531 4.097656 -1.519531 L 3.757812 -1.539062 C 3.640625 -1.539062 3.460938 -1.679688 3.5 -1.800781 C 3.578125 -2.039062 3.71875 -2.359375 3.777344 -2.578125 C 3.960938 -3.257812 4.097656 -3.757812 4.320312 -4.417969 C 4.359375 -4.578125 4.519531 -4.679688 4.679688 -4.679688 C 5.378906 -4.679688 6.4375 -4.640625 7.199219 -4.660156 C 7.4375 -4.679688 7.597656 -4.597656 7.636719 -4.4375 C 7.917969 -3.617188 8.179688 -2.320312 8.378906 -1.78125 C 8.417969 -1.660156 8.339844 -1.558594 8.21875 -1.539062 L 7.9375 -1.539062 C 7.71875 -1.539062 7.558594 -1.359375 7.558594 -1.160156 L 7.558594 -0.378906 C 7.558594 -0.160156 7.738281 0 7.9375 0 L 11.175781 0.0195312 C 11.398438 0.0195312 11.578125 -0.160156 11.578125 -0.359375 L 11.578125 -1.140625 C 11.578125 -1.359375 11.417969 -1.539062 11.195312 -1.539062 Z M 6.9375 -6.21875 C 6.457031 -6.21875 5.617188 -6.238281 5.140625 -6.238281 C 4.980469 -6.238281 4.859375 -6.398438 4.898438 -6.558594 C 5.160156 -7.636719 5.820312 -9.898438 5.9375 -10.296875 C 5.9375 -10.335938 5.976562 -10.378906 6.019531 -10.378906 L 6.160156 -10.378906 C 6.199219 -10.378906 6.238281 -10.335938 6.238281 -10.316406 C 6.320312 -9.957031 6.957031 -7.65625 7.199219 -6.539062 C 7.238281 -6.378906 7.117188 -6.21875 6.9375 -6.21875 Z M 6.9375 -6.21875 "/></g></g></g><g fill="#000000" fill-opacity="1"><g transform="translate(185.232106, 275.278283)"><g><path d="M 11.039062 -13.996094 L 7.878906 -13.976562 L 7.816406 -13.976562 C 7.558594 -13.9375 7.378906 -13.714844 7.398438 -13.457031 L 7.417969 -12.855469 C 7.4375 -12.617188 7.636719 -12.417969 7.878906 -12.398438 C 8.179688 -12.398438 8.378906 -12.175781 8.378906 -11.917969 C 8.398438 -10.699219 8.398438 -8.019531 8.398438 -6.019531 C 8.398438 -3.199219 8.238281 -1.417969 5.976562 -1.417969 C 3.71875 -1.417969 3.640625 -2.960938 3.640625 -5.957031 C 3.640625 -7.359375 3.679688 -10.699219 3.71875 -11.898438 C 3.71875 -12.15625 3.917969 -12.355469 4.277344 -12.398438 C 4.519531 -12.417969 4.71875 -12.617188 4.71875 -12.875 L 4.71875 -13.515625 C 4.71875 -13.777344 4.5 -13.996094 4.21875 -13.996094 L 1.039062 -13.996094 C 0.78125 -13.957031 0.601562 -13.738281 0.601562 -13.476562 L 0.621094 -12.855469 C 0.621094 -12.617188 0.820312 -12.417969 1.078125 -12.398438 C 1.378906 -12.398438 1.578125 -12.175781 1.578125 -11.917969 C 1.539062 -11.636719 1.578125 -7.476562 1.578125 -6.039062 C 1.578125 -0.71875 2.820312 0.179688 6.019531 0.179688 C 9.558594 0.179688 10.539062 -1.199219 10.539062 -6.019531 L 10.539062 -11.898438 C 10.539062 -12.15625 10.71875 -12.355469 10.976562 -12.375 C 11.335938 -12.417969 11.515625 -12.617188 11.515625 -12.875 L 11.515625 -13.515625 C 11.515625 -13.777344 11.296875 -13.996094 11.039062 -13.996094 Z M 11.039062 -13.996094 "/></g></g></g><g fill="#000000" fill-opacity="1"><g transform="translate(197.347325, 275.278283)"><g><path d="M 1.320312 -1.460938 C 1.078125 -1.460938 0.917969 -1.300781 0.917969 -1.121094 L 0.878906 -0.339844 C 0.878906 -0.140625 1.039062 0.0390625 1.238281 0.0390625 C 1.839844 0.0585938 1.839844 0.0585938 4.21875 0.0195312 C 4.4375 0.0195312 4.597656 -0.160156 4.578125 -0.359375 L 4.539062 -1.121094 C 4.539062 -1.300781 4.378906 -1.460938 4.199219 -1.460938 C 3.878906 -1.480469 3.71875 -1.640625 3.71875 -1.839844 L 3.71875 -5.378906 C 3.71875 -5.539062 3.859375 -5.679688 4.019531 -5.679688 C 4.398438 -5.679688 5.078125 -5.699219 5.457031 -5.660156 C 6.359375 -5.660156 7.316406 -4.617188 7.359375 -3.320312 C 7.359375 -1.898438 7.417969 -0.640625 7.839844 -0.199219 C 8.316406 0.238281 9.417969 0.238281 10.496094 0.121094 C 10.71875 0.078125 10.878906 -0.078125 10.898438 -0.28125 C 10.9375 -0.519531 10.996094 -0.679688 11.015625 -1.019531 C 11.039062 -1.257812 10.898438 -1.480469 10.675781 -1.539062 C 10.457031 -1.621094 10.238281 -1.699219 9.835938 -1.960938 C 9.21875 -2.359375 9.9375 -5.597656 8.058594 -6.238281 C 7.996094 -6.257812 7.996094 -6.359375 8.058594 -6.378906 C 9.878906 -6.9375 10.378906 -8.058594 10.296875 -10.199219 C 10.257812 -12.355469 8.71875 -13.976562 7.097656 -14.035156 C 6 -14.117188 2.417969 -14.035156 1.21875 -14.015625 C 1 -14.015625 0.820312 -13.835938 0.820312 -13.617188 L 0.800781 -12.757812 C 0.800781 -12.535156 0.980469 -12.335938 1.21875 -12.335938 L 1.320312 -12.335938 C 1.539062 -12.335938 1.738281 -12.15625 1.738281 -11.917969 C 1.71875 -10.476562 1.71875 -5.679688 1.699219 -3.199219 C 1.699219 -2.9375 1.679688 -2.238281 1.660156 -1.820312 C 1.660156 -1.621094 1.5 -1.480469 1.320312 -1.460938 Z M 5.839844 -7.476562 C 5.378906 -7.476562 4.578125 -7.457031 4.078125 -7.4375 C 3.839844 -7.4375 3.640625 -7.617188 3.640625 -7.859375 L 3.660156 -11.898438 C 3.660156 -12.117188 3.859375 -12.296875 4.078125 -12.296875 C 4.738281 -12.316406 5.9375 -12.296875 6.199219 -12.257812 C 7.699219 -11.957031 8.097656 -11.558594 8.15625 -10.015625 C 8.238281 -8.117188 6.839844 -7.476562 5.839844 -7.476562 Z M 5.839844 -7.476562 "/></g></g></g><g fill="#000000" fill-opacity="1"><g transform="translate(208.78281, 275.278283)"><g><path d="M 11.195312 -1.539062 L 11.078125 -1.539062 C 10.898438 -1.558594 10.757812 -1.660156 10.699219 -1.820312 C 10.136719 -3.359375 7.976562 -10.515625 7.058594 -13.597656 C 6.957031 -13.9375 6.636719 -14.175781 6.277344 -14.195312 L 6 -14.195312 C 5.636719 -14.214844 5.320312 -13.976562 5.199219 -13.636719 C 3.878906 -9.558594 1.839844 -3.238281 1.28125 -1.839844 C 1.21875 -1.679688 1.078125 -1.558594 0.898438 -1.558594 L 0.761719 -1.558594 C 0.460938 -1.539062 0.238281 -1.300781 0.21875 -1.019531 L 0.199219 -0.578125 C 0.199219 -0.261719 0.460938 0 0.78125 0 L 4.058594 0 C 4.320312 0 4.539062 -0.21875 4.539062 -0.480469 L 4.558594 -1.039062 C 4.558594 -1.300781 4.359375 -1.519531 4.097656 -1.519531 L 3.757812 -1.539062 C 3.640625 -1.539062 3.460938 -1.679688 3.5 -1.800781 C 3.578125 -2.039062 3.71875 -2.359375 3.777344 -2.578125 C 3.960938 -3.257812 4.097656 -3.757812 4.320312 -4.417969 C 4.359375 -4.578125 4.519531 -4.679688 4.679688 -4.679688 C 5.378906 -4.679688 6.4375 -4.640625 7.199219 -4.660156 C 7.4375 -4.679688 7.597656 -4.597656 7.636719 -4.4375 C 7.917969 -3.617188 8.179688 -2.320312 8.378906 -1.78125 C 8.417969 -1.660156 8.339844 -1.558594 8.21875 -1.539062 L 7.9375 -1.539062 C 7.71875 -1.539062 7.558594 -1.359375 7.558594 -1.160156 L 7.558594 -0.378906 C 7.558594 -0.160156 7.738281 0 7.9375 0 L 11.175781 0.0195312 C 11.398438 0.0195312 11.578125 -0.160156 11.578125 -0.359375 L 11.578125 -1.140625 C 11.578125 -1.359375 11.417969 -1.539062 11.195312 -1.539062 Z M 6.9375 -6.21875 C 6.457031 -6.21875 5.617188 -6.238281 5.140625 -6.238281 C 4.980469 -6.238281 4.859375 -6.398438 4.898438 -6.558594 C 5.160156 -7.636719 5.820312 -9.898438 5.9375 -10.296875 C 5.9375 -10.335938 5.976562 -10.378906 6.019531 -10.378906 L 6.160156 -10.378906 C 6.199219 -10.378906 6.238281 -10.335938 6.238281 -10.316406 C 6.320312 -9.957031 6.957031 -7.65625 7.199219 -6.539062 C 7.238281 -6.378906 7.117188 -6.21875 6.9375 -6.21875 Z M 6.9375 -6.21875 "/></g></g></g><g fill="#000000" fill-opacity="1"><g transform="translate(220.558161, 275.278283)"><g><path d="M 8.097656 -4.777344 C 8.097656 -4.679688 7.976562 -4.660156 7.9375 -4.738281 L 3.519531 -13.675781 C 3.398438 -13.875 3.199219 -14.015625 2.980469 -13.996094 L 1.101562 -13.996094 C 0.941406 -13.996094 0.800781 -13.875 0.800781 -13.714844 L 0.800781 -12.617188 C 0.800781 -12.457031 0.941406 -12.335938 1.101562 -12.335938 L 1.460938 -12.335938 C 1.621094 -12.335938 1.757812 -12.21875 1.757812 -12.058594 L 1.78125 -1.839844 C 1.78125 -1.640625 1.597656 -1.460938 1.398438 -1.460938 C 1.179688 -1.460938 1.019531 -1.28125 1.019531 -1.078125 L 1.039062 -0.378906 C 1.039062 -0.160156 1.199219 0 1.417969 0 L 4 0.0195312 C 4.21875 0.0195312 4.378906 -0.140625 4.378906 -0.359375 L 4.398438 -1.078125 C 4.398438 -1.300781 4.238281 -1.480469 4.019531 -1.480469 L 3.9375 -1.480469 C 3.738281 -1.480469 3.558594 -1.660156 3.558594 -1.859375 L 3.539062 -9.539062 C 3.539062 -9.597656 3.617188 -9.617188 3.660156 -9.558594 L 8.339844 -0.300781 C 8.4375 -0.101562 8.636719 0 8.859375 0 L 9.699219 0 C 9.898438 0 10.078125 -0.160156 10.058594 -0.359375 L 9.996094 -5.277344 L 9.996094 -11.996094 C 9.996094 -12.195312 10.136719 -12.335938 10.335938 -12.355469 L 10.539062 -12.355469 C 10.71875 -12.355469 10.878906 -12.515625 10.878906 -12.71875 L 10.878906 -13.636719 C 10.878906 -13.816406 10.71875 -13.976562 10.539062 -13.976562 L 7.699219 -13.996094 C 7.5 -13.996094 7.339844 -13.835938 7.339844 -13.636719 L 7.339844 -12.695312 C 7.339844 -12.496094 7.5 -12.335938 7.699219 -12.335938 L 7.796875 -12.335938 C 7.996094 -12.335938 8.15625 -12.175781 8.15625 -11.976562 Z M 8.097656 -4.777344 "/></g></g></g><g fill="#000000" fill-opacity="1"><g transform="translate(232.23356, 275.278283)"><g><path d="M 5.757812 -12.078125 C 5.757812 -12.296875 5.9375 -12.457031 6.136719 -12.457031 L 7.339844 -12.457031 C 7.519531 -12.457031 7.679688 -12.316406 7.699219 -12.15625 L 7.71875 -11.898438 C 7.757812 -11.636719 7.976562 -11.4375 8.238281 -11.417969 L 8.796875 -11.417969 C 9.097656 -11.398438 9.335938 -11.636719 9.359375 -11.9375 L 9.398438 -13.515625 C 9.417969 -13.816406 9.15625 -13.996094 8.859375 -13.996094 L 0.578125 -13.976562 C 0.378906 -13.976562 0.199219 -13.816406 0.199219 -13.597656 L 0.21875 -11.957031 C 0.21875 -11.738281 0.378906 -11.578125 0.578125 -11.578125 L 1.441406 -11.558594 C 1.640625 -11.558594 1.820312 -11.695312 1.820312 -11.898438 L 1.839844 -12.078125 C 1.859375 -12.257812 2.019531 -12.417969 2.21875 -12.417969 L 3.398438 -12.417969 C 3.597656 -12.417969 3.757812 -12.257812 3.757812 -12.035156 L 3.800781 -1.941406 C 3.800781 -1.71875 3.617188 -1.519531 3.398438 -1.519531 L 3.160156 -1.5 C 2.917969 -1.480469 2.738281 -1.300781 2.757812 -1.058594 L 2.78125 -0.398438 C 2.800781 -0.179688 2.980469 0 3.199219 0 L 6.617188 -0.0195312 C 6.839844 -0.0195312 7.039062 -0.199219 7.039062 -0.441406 L 7.019531 -1.101562 C 7.019531 -1.320312 6.839844 -1.5 6.617188 -1.519531 L 6.257812 -1.539062 C 6.039062 -1.539062 5.859375 -1.71875 5.859375 -1.941406 Z M 5.757812 -12.078125 "/></g></g></g></svg>